<svg width="390" height="844" viewBox="0 0 390 844" fill="none" xmlns="http://www.w3.org/2000/svg">
<g clip-path="url(#clip0_136_1469)">
<rect width="390" height="844" rx="20" fill="#1A1A1A"/>
<g clip-path="url(#clip1_136_1469)">
<path fill-rule="evenodd" clip-rule="evenodd" d="M331.388 817.657C389.877 779.313 379.315 691.689 406.772 627.367C433.599 564.521 506.484 511.984 490.199 445.62C473.874 379.089 382.103 369.191 331.967 322.51C280.459 274.552 260.843 191.31 193.864 169.707C123.143 146.898 36.5604 160.824 -20.03 208.983C-74.5802 255.406 -57.545 342.235 -86.0751 407.937C-114.182 472.666 -191.925 518.924 -185.116 589.163C-178.252 659.961 -110.849 708.694 -52.9183 749.968C-0.180145 787.542 62.6735 799.908 126.446 811.141C195.447 823.294 272.794 856.07 331.388 817.657Z" stroke="#333333" stroke-width="2"/>
<path fill-rule="evenodd" clip-rule="evenodd" d="M312.456 786.687C364.931 752.286 355.455 673.673 380.089 615.965C404.157 559.581 469.547 512.446 454.937 452.907C440.29 393.217 357.956 384.337 312.975 342.456C266.764 299.43 249.165 224.747 189.073 205.366C125.624 184.902 47.9454 197.396 -2.82578 240.603C-51.7666 282.252 -36.4832 360.152 -62.0795 419.099C-87.2965 477.171 -157.045 518.673 -150.936 581.689C-144.778 645.207 -84.3061 688.929 -32.3322 725.958C14.9829 759.669 71.3733 770.764 128.588 780.841C190.494 791.745 259.887 821.15 312.456 786.687Z" stroke="#333333" stroke-width="2"/>
<path fill-rule="evenodd" clip-rule="evenodd" d="M350.023 848.142C414.433 805.917 402.802 709.424 433.038 638.591C462.581 569.384 542.842 511.528 524.909 438.448C506.932 365.183 405.872 354.283 350.661 302.876C293.94 250.065 272.338 158.396 198.579 134.607C120.7 109.49 25.3538 124.825 -36.9645 177.859C-97.0362 228.98 -78.2767 324.598 -109.695 396.951C-140.647 468.231 -226.258 519.171 -218.76 596.52C-211.202 674.484 -136.976 728.149 -73.1817 773.601C-15.1055 814.978 54.1101 828.597 124.338 840.966C200.323 854.35 285.498 890.442 350.023 848.142Z" stroke="#333333" stroke-width="2"/>
<path fill-rule="evenodd" clip-rule="evenodd" d="M369.87 880.607C440.584 834.249 427.814 728.31 461.01 650.544C493.445 574.562 581.563 511.044 561.875 430.809C542.137 350.373 431.185 338.406 370.569 281.967C308.296 223.986 284.58 123.344 203.601 97.227C118.098 69.6504 13.419 86.4874 -54.9994 144.712C-120.951 200.838 -100.356 305.815 -134.849 385.25C-168.831 463.508 -262.822 519.435 -254.59 604.354C-246.293 689.951 -164.801 748.869 -94.7619 798.77C-31.0007 844.197 44.9901 859.149 122.092 872.729C205.515 887.423 299.028 927.048 369.87 880.607Z" stroke="#333333" stroke-width="2"/>
</g>
<path d="M262 399.856H216.598V355H173.087C173.087 379.781 152.908 399.856 128 399.856V443.144H173.087V488H216.598C216.598 463.219 237.092 443.144 262 443.144V399.856Z" fill="white"/>
</g>
<defs>
<clipPath id="clip0_136_1469">
<rect width="390" height="844" rx="20" fill="white"/>
</clipPath>
<clipPath id="clip1_136_1469">
<rect width="390" height="627" fill="white" transform="matrix(-1 0 0 1 390 -56)"/>
</clipPath>
</defs>
</svg>
